<svg width="149" height="96" viewBox="0 0 149 96" fill="none" xmlns="http://www.w3.org/2000/svg">
<path d="M7.36739 96.0001C5.937 96.0001 4.54969 95.8101 3.20546 95.4301C1.87847 95.0329 0.809982 94.5233 0 93.9016L1.42178 90.7409C2.19729 91.3108 3.11929 91.7685 4.18778 92.1139C5.25627 92.4594 6.32475 92.6321 7.39324 92.6321C8.58236 92.6321 9.46128 92.4594 10.03 92.1139C10.5987 91.7512 10.8831 91.2763 10.8831 90.689C10.8831 90.2572 10.7107 89.9032 10.366 89.6268C10.0386 89.3332 9.60777 89.1 9.07352 88.9273C8.55651 88.7546 7.84993 88.5646 6.95378 88.3574C5.57509 88.0292 4.44629 87.701 3.56737 87.3729C2.68845 87.0447 1.93017 86.5179 1.29252 85.7925C0.672113 85.0671 0.361907 84.0999 0.361907 82.8909C0.361907 81.8373 0.646262 80.8874 1.21497 80.0411C1.78368 79.1775 2.63675 78.4952 3.77417 77.9944C4.92883 77.4935 6.33337 77.243 7.9878 77.243C9.14246 77.243 10.2713 77.3812 11.3742 77.6576C12.4772 77.9339 13.4423 78.3312 14.2695 78.8493L12.9769 82.0359C11.3053 81.086 9.63362 80.611 7.96195 80.611C6.79006 80.611 5.91976 80.801 5.35105 81.181C4.79958 81.561 4.52384 82.0618 4.52384 82.6836C4.52384 83.3054 4.84266 83.7717 5.4803 84.0826C6.13518 84.3762 7.12612 84.6699 8.45311 84.9635C9.83181 85.2916 10.9606 85.6198 11.8395 85.948C12.7184 86.2761 13.4681 86.7943 14.0885 87.5024C14.7262 88.2106 15.045 89.1691 15.045 90.3781C15.045 91.4144 14.752 92.3644 14.1661 93.228C13.5974 94.0743 12.7357 94.7479 11.581 95.2488C10.4264 95.7496 9.02182 96.0001 7.36739 96.0001Z" fill="white"/>
<path d="M24.0072 81.5437C26.1614 81.5437 27.8159 82.0618 28.9705 83.0981C30.1252 84.1172 30.7025 85.663 30.7025 87.7356V95.6892H26.9283V93.9534C26.1701 95.2488 24.7569 95.8964 22.6889 95.8964C21.6204 95.8964 20.6898 95.7151 19.897 95.3524C19.1215 94.9897 18.5269 94.4888 18.1133 93.8498C17.6997 93.2107 17.4929 92.4853 17.4929 91.6735C17.4929 90.3781 17.9755 89.3591 18.9405 88.6164C19.9229 87.8738 21.4308 87.5024 23.4644 87.5024H26.6698C26.6698 86.6216 26.4027 85.948 25.8685 85.4816C25.3342 84.998 24.5329 84.7562 23.4644 84.7562C22.7233 84.7562 21.9909 84.8771 21.2671 85.1189C20.5605 85.3435 19.9573 85.6543 19.4575 86.0516L18.0099 83.2277C18.7682 82.6923 19.673 82.2777 20.7242 81.9841C21.7927 81.6905 22.887 81.5437 24.0072 81.5437ZM23.697 93.1762C24.3864 93.1762 24.9982 93.0207 25.5324 92.7098C26.0667 92.3817 26.4458 91.9067 26.6698 91.2849V89.86H23.9038C22.2494 89.86 21.4222 90.4041 21.4222 91.4922C21.4222 92.0103 21.6204 92.4248 22.0167 92.7357C22.4304 93.0293 22.9904 93.1762 23.697 93.1762Z" fill="white"/>
<path d="M43.3482 81.5437C44.6408 81.5437 45.8127 81.8459 46.8639 82.4505C47.9324 83.0377 48.7682 83.8754 49.3714 84.9635C49.9746 86.0343 50.2762 87.2865 50.2762 88.7201C50.2762 90.1536 49.9746 91.4144 49.3714 92.5026C48.7682 93.5734 47.9324 94.4111 46.8639 95.0156C45.8127 95.6028 44.6408 95.8964 43.3482 95.8964C41.4353 95.8964 39.9791 95.2919 38.9795 94.0829V95.6892H35.1278V76.4658H39.1605V83.2277C40.1773 82.105 41.5732 81.5437 43.3482 81.5437ZM42.6503 92.5803C43.6843 92.5803 44.5288 92.2348 45.1836 91.544C45.8557 90.8358 46.1918 89.8945 46.1918 88.7201C46.1918 87.5456 45.8557 86.6129 45.1836 85.9221C44.5288 85.2139 43.6843 84.8598 42.6503 84.8598C41.6163 84.8598 40.7632 85.2139 40.0911 85.9221C39.4362 86.6129 39.1088 87.5456 39.1088 88.7201C39.1088 89.8945 39.4362 90.8358 40.0911 91.544C40.7632 92.2348 41.6163 92.5803 42.6503 92.5803Z" fill="white"/>
<path d="M67.3745 88.7719C67.3745 88.8237 67.3486 89.1864 67.2969 89.86H56.7758C56.9653 90.7236 57.4134 91.4058 58.12 91.9067C58.8266 92.4076 59.7055 92.658 60.7567 92.658C61.4805 92.658 62.1182 92.5544 62.6697 92.3471C63.2384 92.1226 63.764 91.7772 64.2466 91.3108L66.3921 93.6425C65.0824 95.1451 63.1694 95.8964 60.6533 95.8964C59.0851 95.8964 57.6978 95.5942 56.4914 94.9897C55.285 94.3679 54.3544 93.513 53.6995 92.4248C53.0447 91.3367 52.7172 90.1018 52.7172 88.7201C52.7172 87.3556 53.0361 86.1293 53.6737 85.0412C54.3286 83.9358 55.2161 83.0809 56.3363 82.4764C57.4737 81.8546 58.7404 81.5437 60.1363 81.5437C61.4978 81.5437 62.73 81.8373 63.8329 82.4245C64.9359 83.0118 65.7976 83.8581 66.418 84.9635C67.0556 86.0516 67.3745 87.3211 67.3745 88.7719ZM60.1622 84.6008C59.2488 84.6008 58.4819 84.8598 57.8615 85.378C57.2411 85.8961 56.8619 86.6043 56.7241 87.5024H63.5744C63.4366 86.6216 63.0574 85.9221 62.437 85.4039C61.8166 84.8685 61.0583 84.6008 60.1622 84.6008Z" fill="white"/>
<path d="M74.6865 83.5904C75.1691 82.9168 75.8153 82.4073 76.6253 82.0618C77.4525 81.7164 78.4004 81.5437 79.4689 81.5437V85.2744C79.0208 85.2398 78.7192 85.2226 78.5641 85.2226C77.4094 85.2226 76.5047 85.5507 75.8498 86.207C75.1949 86.8461 74.8675 87.8133 74.8675 89.1087V95.6892H70.8348V81.7509H74.6865V83.5904Z" fill="white"/>
<path d="M89.2265 77.5539H91.1395V94.0311H101.273V95.6892H89.2265V77.5539Z" fill="white"/>
<path d="M109.644 81.9582C111.419 81.9582 112.78 82.4073 113.728 83.3054C114.676 84.1863 115.15 85.4989 115.15 87.2433V95.6892H113.392V93.5648C112.979 94.2729 112.367 94.8256 111.557 95.2228C110.764 95.6201 109.816 95.8187 108.713 95.8187C107.197 95.8187 105.99 95.456 105.094 94.7306C104.198 94.0052 103.75 93.0466 103.75 91.8549C103.75 90.6977 104.163 89.765 104.991 89.0569C105.835 88.3487 107.171 87.9947 108.998 87.9947H113.315V87.1656C113.315 85.9911 112.987 85.1017 112.332 84.4971C111.677 83.8754 110.721 83.5645 109.463 83.5645C108.601 83.5645 107.774 83.7113 106.981 84.0049C106.188 84.2812 105.508 84.6699 104.939 85.1707L104.112 83.7976C104.801 83.2104 105.628 82.7613 106.593 82.4505C107.559 82.1223 108.575 81.9582 109.644 81.9582ZM108.998 94.3679C110.032 94.3679 110.919 94.1347 111.66 93.6684C112.401 93.1848 112.953 92.4939 113.315 91.5958V89.3678H109.049C106.723 89.3678 105.559 90.1795 105.559 91.8031C105.559 92.5976 105.861 93.228 106.464 93.6943C107.067 94.1434 107.912 94.3679 108.998 94.3679Z" fill="white"/>
<path d="M127.916 81.9582C129.191 81.9582 130.346 82.2518 131.38 82.8391C132.414 83.409 133.224 84.2208 133.81 85.2744C134.396 86.3279 134.689 87.5283 134.689 88.8755C134.689 90.2227 134.396 91.4231 133.81 92.4767C133.224 93.5302 132.414 94.3506 131.38 94.9379C130.346 95.5251 129.191 95.8187 127.916 95.8187C126.779 95.8187 125.753 95.5769 124.84 95.0933C123.944 94.6097 123.22 93.9102 122.668 92.9948V95.6892H120.911V76.4658H122.746V84.6526C123.315 83.7717 124.038 83.1068 124.917 82.6577C125.814 82.1914 126.813 81.9582 127.916 81.9582ZM127.787 94.1865C128.735 94.1865 129.596 93.9707 130.372 93.5389C131.147 93.0898 131.751 92.4594 132.181 91.6476C132.629 90.8358 132.854 89.9118 132.854 88.8755C132.854 87.8392 132.629 86.9152 132.181 86.1034C131.751 85.2916 131.147 84.6699 130.372 84.2381C129.596 83.789 128.735 83.5645 127.787 83.5645C126.822 83.5645 125.951 83.789 125.176 84.2381C124.418 84.6699 123.814 85.2916 123.366 86.1034C122.936 86.9152 122.72 87.8392 122.72 88.8755C122.72 89.9118 122.936 90.8358 123.366 91.6476C123.814 92.4594 124.418 93.0898 125.176 93.5389C125.951 93.9707 126.822 94.1865 127.787 94.1865Z" fill="white"/>
<path d="M142.851 95.8187C141.748 95.8187 140.688 95.6633 139.671 95.3524C138.672 95.0242 137.887 94.6183 137.319 94.1347L138.146 92.6839C138.715 93.133 139.43 93.5043 140.292 93.7979C141.153 94.0743 142.049 94.2125 142.98 94.2125C144.221 94.2125 145.134 94.0225 145.72 93.6425C146.323 93.2452 146.625 92.6925 146.625 91.9844C146.625 91.4835 146.461 91.0949 146.134 90.8186C145.806 90.525 145.393 90.3091 144.893 90.1709C144.393 90.0154 143.73 89.8686 142.902 89.7305C141.8 89.5232 140.912 89.3159 140.24 89.1087C139.568 88.8841 138.99 88.5128 138.508 87.9947C138.043 87.4765 137.81 86.7597 137.81 85.8443C137.81 84.7044 138.284 83.7717 139.232 83.0463C140.18 82.3209 141.498 81.9582 143.187 81.9582C144.066 81.9582 144.945 82.0791 145.824 82.3209C146.702 82.5454 147.426 82.8477 147.995 83.2277L147.194 84.7044C146.073 83.9272 144.738 83.5386 143.187 83.5386C142.015 83.5386 141.127 83.7458 140.524 84.1603C139.938 84.5749 139.645 85.1189 139.645 85.7925C139.645 86.3107 139.809 86.7252 140.136 87.0361C140.481 87.347 140.903 87.5801 141.403 87.7356C141.903 87.8738 142.592 88.0206 143.471 88.176C144.557 88.3833 145.427 88.5905 146.082 88.7978C146.737 89.005 147.297 89.3591 147.762 89.86C148.228 90.3609 148.46 91.0517 148.46 91.9326C148.46 93.1243 147.961 94.0743 146.961 94.7824C145.979 95.4733 144.609 95.8187 142.851 95.8187Z" fill="white"/>
<mask id="path-2-outside-1_538_4693" maskUnits="userSpaceOnUse" x="16.093" y="1.72363" width="116" height="67" fill="black">
<rect fill="white" x="16.093" y="1.72363" width="116" height="67"/>
<path fill-rule="evenodd" clip-rule="evenodd" d="M88.7576 30.3821L103.557 15.5823C106.178 12.9616 106.143 8.67429 103.52 6.05171C100.898 3.42914 96.6106 3.39425 93.99 6.01493L79.1906 20.8148C76.4627 23.5427 72.0401 23.5427 69.3123 20.8148L54.5128 6.01493C51.8922 3.39425 47.605 3.42913 44.9825 6.05171C42.36 8.67429 42.3251 12.9616 44.9458 15.5823L59.7452 30.3821C62.473 33.11 62.473 37.5328 59.7452 40.2607L44.9458 55.0605C42.3251 57.6812 42.36 61.9685 44.9825 64.5911C47.605 67.2137 51.8922 67.2486 54.5128 64.6279L69.3123 49.828C72.0401 47.1001 76.4627 47.1001 79.1906 49.828L93.99 64.6279C96.6106 67.2486 100.898 67.2137 103.52 64.5911C106.143 61.9685 106.178 57.6812 103.557 55.0605L88.7576 40.2607C86.0298 37.5328 86.0298 33.11 88.7576 30.3821ZM103.616 5.95551C100.942 3.28075 96.5685 3.24397 93.8938 5.91873L79.0944 20.7186C76.4197 23.3933 72.0831 23.3933 69.4085 20.7186L54.609 5.91873C51.9343 3.24397 47.561 3.28075 44.8863 5.95551C42.2117 8.63027 42.1749 13.0037 44.8496 15.6785L59.649 30.4783C62.3237 33.1531 62.3237 37.4897 59.649 40.1645L44.8496 54.9643C42.1749 57.6391 42.2117 62.0125 44.8863 64.6873C47.561 67.3621 51.9343 67.3988 54.609 64.7241L69.4085 49.9242C72.0831 47.2495 76.4197 47.2495 79.0944 49.9242L93.8938 64.7241C96.5685 67.3988 100.942 67.3621 103.616 64.6873C106.291 62.0125 106.328 57.6391 103.653 54.9644L88.8538 40.1645C86.1791 37.4897 86.1791 33.1531 88.8538 30.4783L103.653 15.6785C106.328 13.0037 106.291 8.63027 103.616 5.95551Z"/>
<path fill-rule="evenodd" clip-rule="evenodd" d="M53.4021 3.57455C50.3672 2.06674 46.5752 2.55889 44.0453 5.0821L19.4575 29.6051C16.5024 32.5524 16.3267 37.2154 18.8768 40.3877C19.0631 40.6204 19.2641 40.8448 19.4795 41.0596L44.0453 65.5607C45.6243 67.1355 47.6949 67.9191 49.7662 67.9192C51.0163 67.9222 52.2664 67.6388 53.4071 67.0657C54.1721 66.685 54.8889 66.1771 55.5251 65.5426C55.6557 65.4124 55.7808 65.2788 55.9007 65.1422L70.2656 50.7768C72.4673 48.5751 76.0355 48.5751 78.2371 50.7768L93.0365 65.5766C96.1927 68.7329 101.334 68.6792 104.474 65.5398C107.611 62.4023 107.665 57.2662 104.51 54.1118L89.711 39.312C87.5075 37.1084 87.5075 33.5344 89.711 31.3309L104.51 16.531C107.665 13.3767 107.611 8.24057 104.474 5.10299C101.334 1.96364 96.1927 1.90997 93.0365 5.06621L78.2371 19.8661C76.0355 22.0678 72.4673 22.0678 70.2656 19.8661L55.9009 5.50086C55.781 5.36412 55.6557 5.23049 55.5251 5.10025C54.8875 4.46431 54.169 3.95558 53.4021 3.57455ZM102.7 14.7297L87.9004 29.5296C84.7013 32.7287 84.7013 37.9141 87.9004 41.1132L102.7 55.9131C104.841 58.0543 104.823 61.5789 102.663 63.7386C100.505 65.8965 96.9864 65.9146 94.8472 63.7754L80.0477 48.9755C76.8469 45.7746 71.6559 45.7746 68.455 48.9755L57.9034 59.5274C57.8376 57.5531 57.0531 55.599 55.5433 54.0933L51.5777 50.1381L60.6024 41.1132C63.8014 37.9141 63.8014 32.7287 60.6024 29.5296L51.5777 20.5047L55.5433 16.5495C57.0531 15.0438 57.8376 13.0898 57.9035 11.1155L68.455 21.6673C71.6559 24.8683 76.8469 24.8683 80.0477 21.6673L94.8472 6.86748C96.9864 4.72822 100.505 4.74632 102.663 6.90426C104.823 9.06397 104.841 12.5886 102.7 14.7297ZM52.0452 5.75624C52.6305 6.01903 53.1775 6.38937 53.6556 6.86748L54.0213 7.2332C55.8827 9.41243 55.7896 12.6963 53.7344 14.7461L49.7716 18.6985L45.8029 14.7297C43.6618 12.5886 43.6801 9.06396 45.8397 6.90426C46.9253 5.81868 48.3552 5.27464 49.7807 5.27435C50.5533 5.27604 51.3263 5.43673 52.0452 5.75624ZM57.7513 9.25356L69.3123 20.8148C72.0401 23.5427 76.4627 23.5427 79.1906 20.8148L93.99 6.01493C96.6106 3.39425 100.898 3.42914 103.52 6.05171C106.143 8.67429 106.178 12.9616 103.557 15.5823L88.7576 30.3821C86.0298 33.11 86.0298 37.5328 88.7576 40.2607L103.557 55.0605C106.178 57.6812 106.143 61.9685 103.52 64.5911C100.898 67.2137 96.6106 67.2486 93.99 64.6279L79.1906 49.828C76.4627 47.1001 72.0401 47.1001 69.3123 49.828L57.7513 61.3893C57.735 61.4712 57.7174 61.5529 57.6986 61.6344L69.4085 49.9242C72.0831 47.2495 76.4197 47.2495 79.0944 49.9242L93.8938 64.7241C96.5685 67.3988 100.942 67.3621 103.616 64.6873C106.291 62.0125 106.328 57.6391 103.653 54.9644L88.8538 40.1645C86.1791 37.4897 86.1791 33.1531 88.8538 30.4783L103.653 15.6785C106.328 13.0037 106.291 8.63027 103.616 5.95551C100.942 3.28075 96.5685 3.24397 93.8938 5.91873L79.0944 20.7186C76.4197 23.3933 72.0831 23.3933 69.4085 20.7186L57.6986 9.00843C57.7174 9.08991 57.735 9.17163 57.7513 9.25356ZM42.9436 9.78846L43.1095 9.62305C42.7252 11.7229 43.3321 13.9685 44.9458 15.5823L48.9156 19.5522L48.8193 19.6483L44.8496 15.6785C43.2514 14.0801 42.6211 11.875 42.9436 9.78846ZM41.6541 11.0746L21.2664 31.4085C19.2519 33.4177 19.1217 36.6147 20.8731 38.793L20.8747 38.795C21.0022 38.9542 21.14 39.1082 21.2884 39.2562L41.6541 59.5682C41.7073 57.5864 42.4822 55.622 43.9923 54.1118L47.9633 50.1408L38.9317 41.1331C35.7135 37.9233 35.7135 32.7195 38.9318 29.5097L47.9632 20.502L43.9923 16.531C42.4822 15.0208 41.7073 13.0564 41.6541 11.0746ZM50.6254 49.1883L59.649 40.1645C62.3237 37.4897 62.3237 33.1531 59.649 30.4783L50.6254 21.4545L50.7217 21.3584L59.7452 30.3821C62.473 33.11 62.473 37.5328 59.7452 40.2607L50.7217 49.2844L50.6254 49.1883ZM48.8193 50.9945L44.8496 54.9643C43.2514 56.5627 42.6211 58.7678 42.9436 60.8543L43.1095 61.0197C42.7252 58.92 43.3321 56.6743 44.9458 55.0605L48.9156 51.0906L48.8193 50.9945ZM49.7716 51.9443L45.8029 55.9131C43.6618 58.0542 43.6801 61.5789 45.8397 63.7386C47.5167 65.4156 50.0156 65.8003 52.0502 64.8843C52.6336 64.6217 53.1789 64.2521 53.6556 63.7754L54.0212 63.4098C55.8827 61.2305 55.7897 57.9466 53.7344 55.8967L49.7716 51.9443ZM49.7694 48.3346L40.7406 39.3296C38.5211 37.1159 38.5211 33.5268 40.7406 31.3132L49.7694 22.3082L58.7918 31.3309C60.9952 33.5344 60.9952 37.1084 58.7918 39.312L49.7694 48.3346Z"/>
<path fill-rule="evenodd" clip-rule="evenodd" d="M98.7783 2.72468C96.653 2.69074 94.5165 3.48291 92.8945 5.10048L43.8616 54.0001C40.686 57.167 40.6829 62.3009 43.8576 65.467C47.0324 68.6331 52.1803 68.63 55.3559 65.4631L98.7674 22.1696L107.935 31.3132C110.155 33.5268 110.155 37.1159 107.935 39.3296L93.1324 54.0933C89.9633 57.254 89.9898 62.3901 93.1506 65.5426C96.3114 68.6951 101.461 68.7215 104.63 65.5607L129.196 41.0596C129.412 40.8448 129.613 40.6204 129.799 40.3877C132.349 37.2154 132.173 32.5524 129.218 29.6051L104.63 5.0821C103.018 3.47406 100.893 2.69093 98.7783 2.72468ZM127.802 38.7933L127.801 38.795C127.674 38.9542 127.536 39.1082 127.387 39.2562L102.821 63.7573C100.66 65.913 97.1301 65.904 94.9595 63.7391C92.7886 61.574 92.7796 58.0527 94.9413 55.8967L109.744 41.1331C112.962 37.9233 112.962 32.7195 109.744 29.5097L100.576 20.3659L104.389 16.5635C105.978 14.979 106.772 12.9022 106.772 10.8258L127.409 31.4085C129.424 33.4177 129.554 36.6151 127.802 38.7933ZM90.7677 10.8293L45.6704 55.804C43.4926 57.9759 43.4921 61.4945 45.6666 63.663C47.841 65.8315 51.3692 65.8311 53.547 63.6592L96.9586 20.3657L93.1324 16.5495C91.5497 14.971 90.7641 12.8999 90.7677 10.8293ZM98.7672 18.5619L94.9413 14.7461C92.7796 12.5901 92.7886 9.06884 94.9595 6.9037C96.0125 5.8534 97.3855 5.31053 98.767 5.27609C100.152 5.30566 101.528 5.84725 102.584 6.90055C104.758 9.06905 104.758 12.5877 102.58 14.7596L98.7672 18.5619Z"/>
</mask>
<path fill-rule="evenodd" clip-rule="evenodd" d="M88.7576 30.3821L103.557 15.5823C106.178 12.9616 106.143 8.67429 103.52 6.05171C100.898 3.42914 96.6106 3.39425 93.99 6.01493L79.1906 20.8148C76.4627 23.5427 72.0401 23.5427 69.3123 20.8148L54.5128 6.01493C51.8922 3.39425 47.605 3.42913 44.9825 6.05171C42.36 8.67429 42.3251 12.9616 44.9458 15.5823L59.7452 30.3821C62.473 33.11 62.473 37.5328 59.7452 40.2607L44.9458 55.0605C42.3251 57.6812 42.36 61.9685 44.9825 64.5911C47.605 67.2137 51.8922 67.2486 54.5128 64.6279L69.3123 49.828C72.0401 47.1001 76.4627 47.1001 79.1906 49.828L93.99 64.6279C96.6106 67.2486 100.898 67.2137 103.52 64.5911C106.143 61.9685 106.178 57.6812 103.557 55.0605L88.7576 40.2607C86.0298 37.5328 86.0298 33.11 88.7576 30.3821ZM103.616 5.95551C100.942 3.28075 96.5685 3.24397 93.8938 5.91873L79.0944 20.7186C76.4197 23.3933 72.0831 23.3933 69.4085 20.7186L54.609 5.91873C51.9343 3.24397 47.561 3.28075 44.8863 5.95551C42.2117 8.63027 42.1749 13.0037 44.8496 15.6785L59.649 30.4783C62.3237 33.1531 62.3237 37.4897 59.649 40.1645L44.8496 54.9643C42.1749 57.6391 42.2117 62.0125 44.8863 64.6873C47.561 67.3621 51.9343 67.3988 54.609 64.7241L69.4085 49.9242C72.0831 47.2495 76.4197 47.2495 79.0944 49.9242L93.8938 64.7241C96.5685 67.3988 100.942 67.3621 103.616 64.6873C106.291 62.0125 106.328 57.6391 103.653 54.9644L88.8538 40.1645C86.1791 37.4897 86.1791 33.1531 88.8538 30.4783L103.653 15.6785C106.328 13.0037 106.291 8.63027 103.616 5.95551Z" fill="white"/>
<path fill-rule="evenodd" clip-rule="evenodd" d="M53.4021 3.57455C50.3672 2.06674 46.5752 2.55889 44.0453 5.0821L19.4575 29.6051C16.5024 32.5524 16.3267 37.2154 18.8768 40.3877C19.0631 40.6204 19.2641 40.8448 19.4795 41.0596L44.0453 65.5607C45.6243 67.1355 47.6949 67.9191 49.7662 67.9192C51.0163 67.9222 52.2664 67.6388 53.4071 67.0657C54.1721 66.685 54.8889 66.1771 55.5251 65.5426C55.6557 65.4124 55.7808 65.2788 55.9007 65.1422L70.2656 50.7768C72.4673 48.5751 76.0355 48.5751 78.2371 50.7768L93.0365 65.5766C96.1927 68.7329 101.334 68.6792 104.474 65.5398C107.611 62.4023 107.665 57.2662 104.51 54.1118L89.711 39.312C87.5075 37.1084 87.5075 33.5344 89.711 31.3309L104.51 16.531C107.665 13.3767 107.611 8.24057 104.474 5.10299C101.334 1.96364 96.1927 1.90997 93.0365 5.06621L78.2371 19.8661C76.0355 22.0678 72.4673 22.0678 70.2656 19.8661L55.9009 5.50086C55.781 5.36412 55.6557 5.23049 55.5251 5.10025C54.8875 4.46431 54.169 3.95558 53.4021 3.57455ZM102.7 14.7297L87.9004 29.5296C84.7013 32.7287 84.7013 37.9141 87.9004 41.1132L102.7 55.9131C104.841 58.0543 104.823 61.5789 102.663 63.7386C100.505 65.8965 96.9864 65.9146 94.8472 63.7754L80.0477 48.9755C76.8469 45.7746 71.6559 45.7746 68.455 48.9755L57.9034 59.5274C57.8376 57.5531 57.0531 55.599 55.5433 54.0933L51.5777 50.1381L60.6024 41.1132C63.8014 37.9141 63.8014 32.7287 60.6024 29.5296L51.5777 20.5047L55.5433 16.5495C57.0531 15.0438 57.8376 13.0898 57.9035 11.1155L68.455 21.6673C71.6559 24.8683 76.8469 24.8683 80.0477 21.6673L94.8472 6.86748C96.9864 4.72822 100.505 4.74632 102.663 6.90426C104.823 9.06397 104.841 12.5886 102.7 14.7297ZM52.0452 5.75624C52.6305 6.01903 53.1775 6.38937 53.6556 6.86748L54.0213 7.2332C55.8827 9.41243 55.7896 12.6963 53.7344 14.7461L49.7716 18.6985L45.8029 14.7297C43.6618 12.5886 43.6801 9.06396 45.8397 6.90426C46.9253 5.81868 48.3552 5.27464 49.7807 5.27435C50.5533 5.27604 51.3263 5.43673 52.0452 5.75624ZM57.7513 9.25356L69.3123 20.8148C72.0401 23.5427 76.4627 23.5427 79.1906 20.8148L93.99 6.01493C96.6106 3.39425 100.898 3.42914 103.52 6.05171C106.143 8.67429 106.178 12.9616 103.557 15.5823L88.7576 30.3821C86.0298 33.11 86.0298 37.5328 88.7576 40.2607L103.557 55.0605C106.178 57.6812 106.143 61.9685 103.52 64.5911C100.898 67.2137 96.6106 67.2486 93.99 64.6279L79.1906 49.828C76.4627 47.1001 72.0401 47.1001 69.3123 49.828L57.7513 61.3893C57.735 61.4712 57.7174 61.5529 57.6986 61.6344L69.4085 49.9242C72.0831 47.2495 76.4197 47.2495 79.0944 49.9242L93.8938 64.7241C96.5685 67.3988 100.942 67.3621 103.616 64.6873C106.291 62.0125 106.328 57.6391 103.653 54.9644L88.8538 40.1645C86.1791 37.4897 86.1791 33.1531 88.8538 30.4783L103.653 15.6785C106.328 13.0037 106.291 8.63027 103.616 5.95551C100.942 3.28075 96.5685 3.24397 93.8938 5.91873L79.0944 20.7186C76.4197 23.3933 72.0831 23.3933 69.4085 20.7186L57.6986 9.00843C57.7174 9.08991 57.735 9.17163 57.7513 9.25356ZM42.9436 9.78846L43.1095 9.62305C42.7252 11.7229 43.3321 13.9685 44.9458 15.5823L48.9156 19.5522L48.8193 19.6483L44.8496 15.6785C43.2514 14.0801 42.6211 11.875 42.9436 9.78846ZM41.6541 11.0746L21.2664 31.4085C19.2519 33.4177 19.1217 36.6147 20.8731 38.793L20.8747 38.795C21.0022 38.9542 21.14 39.1082 21.2884 39.2562L41.6541 59.5682C41.7073 57.5864 42.4822 55.622 43.9923 54.1118L47.9633 50.1408L38.9317 41.1331C35.7135 37.9233 35.7135 32.7195 38.9318 29.5097L47.9632 20.502L43.9923 16.531C42.4822 15.0208 41.7073 13.0564 41.6541 11.0746ZM50.6254 49.1883L59.649 40.1645C62.3237 37.4897 62.3237 33.1531 59.649 30.4783L50.6254 21.4545L50.7217 21.3584L59.7452 30.3821C62.473 33.11 62.473 37.5328 59.7452 40.2607L50.7217 49.2844L50.6254 49.1883ZM48.8193 50.9945L44.8496 54.9643C43.2514 56.5627 42.6211 58.7678 42.9436 60.8543L43.1095 61.0197C42.7252 58.92 43.3321 56.6743 44.9458 55.0605L48.9156 51.0906L48.8193 50.9945ZM49.7716 51.9443L45.8029 55.9131C43.6618 58.0542 43.6801 61.5789 45.8397 63.7386C47.5167 65.4156 50.0156 65.8003 52.0502 64.8843C52.6336 64.6217 53.1789 64.2521 53.6556 63.7754L54.0212 63.4098C55.8827 61.2305 55.7897 57.9466 53.7344 55.8967L49.7716 51.9443ZM49.7694 48.3346L40.7406 39.3296C38.5211 37.1159 38.5211 33.5268 40.7406 31.3132L49.7694 22.3082L58.7918 31.3309C60.9952 33.5344 60.9952 37.1084 58.7918 39.312L49.7694 48.3346Z" fill="white"/>
<path fill-rule="evenodd" clip-rule="evenodd" d="M98.7783 2.72468C96.653 2.69074 94.5165 3.48291 92.8945 5.10048L43.8616 54.0001C40.686 57.167 40.6829 62.3009 43.8576 65.467C47.0324 68.6331 52.1803 68.63 55.3559 65.4631L98.7674 22.1696L107.935 31.3132C110.155 33.5268 110.155 37.1159 107.935 39.3296L93.1324 54.0933C89.9633 57.254 89.9898 62.3901 93.1506 65.5426C96.3114 68.6951 101.461 68.7215 104.63 65.5607L129.196 41.0596C129.412 40.8448 129.613 40.6204 129.799 40.3877C132.349 37.2154 132.173 32.5524 129.218 29.6051L104.63 5.0821C103.018 3.47406 100.893 2.69093 98.7783 2.72468ZM127.802 38.7933L127.801 38.795C127.674 38.9542 127.536 39.1082 127.387 39.2562L102.821 63.7573C100.66 65.913 97.1301 65.904 94.9595 63.7391C92.7886 61.574 92.7796 58.0527 94.9413 55.8967L109.744 41.1331C112.962 37.9233 112.962 32.7195 109.744 29.5097L100.576 20.3659L104.389 16.5635C105.978 14.979 106.772 12.9022 106.772 10.8258L127.409 31.4085C129.424 33.4177 129.554 36.6151 127.802 38.7933ZM90.7677 10.8293L45.6704 55.804C43.4926 57.9759 43.4921 61.4945 45.6666 63.663C47.841 65.8315 51.3692 65.8311 53.547 63.6592L96.9586 20.3657L93.1324 16.5495C91.5497 14.971 90.7641 12.8999 90.7677 10.8293ZM98.7672 18.5619L94.9413 14.7461C92.7796 12.5901 92.7886 9.06884 94.9595 6.9037C96.0125 5.8534 97.3855 5.31053 98.767 5.27609C100.152 5.30566 101.528 5.84725 102.584 6.90055C104.758 9.06905 104.758 12.5877 102.58 14.7596L98.7672 18.5619Z" fill="white"/>
<path d="M103.557 15.5823L103.698 15.7237L103.557 15.5823ZM88.7576 30.3821L88.6162 30.2407L88.7576 30.3821ZM103.52 6.05171L103.662 5.9103L103.52 6.05171ZM93.99 6.01493L93.8486 5.87351L93.99 6.01493ZM79.1906 20.8148L79.332 20.9562L79.1906 20.8148ZM79.1906 49.828L79.0491 49.9694L79.1906 49.828ZM93.99 64.6279L93.8486 64.7693L93.99 64.6279ZM103.52 64.5911L103.662 64.7325L103.52 64.5911ZM103.557 55.0605L103.698 54.9191L103.557 55.0605ZM88.7576 40.2607L88.6162 40.4021L88.7576 40.2607ZM93.8938 5.91873L93.7524 5.77731V5.77731L93.8938 5.91873ZM103.616 5.95551L103.475 6.09693L103.616 5.95551ZM79.0944 20.7186L79.2358 20.86L79.0944 20.7186ZM79.0944 49.9242L78.9529 50.0657L79.0944 49.9242ZM93.8938 64.7241L94.0352 64.5827L93.8938 64.7241ZM103.616 64.6873L103.758 64.8287L103.616 64.6873ZM103.653 54.9644L103.795 54.8229L103.653 54.9644ZM88.8538 40.1645L88.7124 40.3059L88.8538 40.1645ZM88.8538 30.4783L88.7124 30.3369L88.8538 30.4783ZM103.653 15.6785L103.795 15.8199L103.653 15.6785ZM103.416 15.4408L88.6162 30.2407L88.899 30.5235L103.698 15.7237L103.416 15.4408ZM103.379 6.19313C105.925 8.739 105.957 12.8996 103.416 15.4408L103.698 15.7237C106.399 13.0235 106.361 8.60959 103.662 5.9103L103.379 6.19313ZM94.1314 6.15635C96.6725 3.61515 100.833 3.64728 103.379 6.19313L103.662 5.9103C100.962 3.211 96.5487 3.17334 93.8486 5.87351L94.1314 6.15635ZM79.332 20.9562L94.1314 6.15635L93.8486 5.87351L79.0491 20.6734L79.332 20.9562ZM69.1708 20.9562C71.9768 23.7622 76.5261 23.7622 79.332 20.9562L79.0491 20.6734C76.3994 23.3231 72.1034 23.3231 69.4537 20.6734L69.1708 20.9562ZM59.8866 40.4021C62.6925 37.5961 62.6925 33.0467 59.8866 30.2407L59.6038 30.5235C62.2535 33.1733 62.2535 37.4695 59.6038 40.1193L59.8866 40.4021ZM79.332 49.6866C76.5261 46.8806 71.9768 46.8806 69.1708 49.6866L69.4537 49.9694C72.1034 47.3197 76.3994 47.3197 79.0491 49.9694L79.332 49.6866ZM94.1314 64.4865L79.332 49.6866L79.0491 49.9694L93.8486 64.7693L94.1314 64.4865ZM103.379 64.4497C100.833 66.9955 96.6725 67.0277 94.1314 64.4865L93.8486 64.7693C96.5487 67.4695 100.962 67.4318 103.662 64.7325L103.379 64.4497ZM103.416 55.202C105.957 57.7432 105.925 61.9038 103.379 64.4497L103.662 64.7325C106.361 62.0332 106.399 57.6193 103.698 54.9191L103.416 55.202ZM88.6162 40.4021L103.416 55.202L103.698 54.9191L88.899 40.1193L88.6162 40.4021ZM88.6162 30.2407C85.8102 33.0467 85.8102 37.5961 88.6162 40.4021L88.899 40.1193C86.2493 37.4695 86.2493 33.1733 88.899 30.5235L88.6162 30.2407ZM94.0352 6.06015C96.6304 3.46489 100.877 3.49889 103.475 6.09693L103.758 5.81409C101.007 3.06262 96.5065 3.02306 93.7524 5.77731L94.0352 6.06015ZM79.2358 20.86L94.0352 6.06015L93.7524 5.77731L78.9529 20.5772L79.2358 20.86ZM69.267 20.86C72.0198 23.6129 76.483 23.6129 79.2358 20.86L78.9529 20.5772C76.3563 23.1738 72.1465 23.1738 69.5499 20.5772L69.267 20.86ZM59.7904 40.3059C62.5432 37.553 62.5432 33.0898 59.7904 30.3369L59.5076 30.6197C62.1042 33.2164 62.1042 37.4264 59.5076 40.0231L59.7904 40.3059ZM79.2358 49.7828C76.483 47.0299 72.0198 47.0299 69.267 49.7828L69.5499 50.0656C72.1465 47.469 76.3564 47.469 78.9529 50.0657L79.2358 49.7828ZM94.0352 64.5827L79.2358 49.7828L78.9529 50.0657L93.7524 64.8655L94.0352 64.5827ZM103.475 64.5459C100.877 67.1439 96.6304 67.1779 94.0352 64.5827L93.7524 64.8655C96.5065 67.6198 101.006 67.5802 103.758 64.8287L103.475 64.5459ZM103.512 55.1058C106.107 57.701 106.073 61.9478 103.475 64.5459L103.758 64.8287C106.509 62.0772 106.549 57.5772 103.795 54.8229L103.512 55.1058ZM88.7124 40.3059L103.512 55.1058L103.795 54.8229L88.9952 40.0231L88.7124 40.3059ZM88.7124 30.3369C85.9596 33.0898 85.9596 37.553 88.7124 40.3059L88.9952 40.0231C86.3986 37.4264 86.3986 33.2164 88.9952 30.6197L88.7124 30.3369ZM103.512 15.537L88.7124 30.3369L88.9952 30.6197L103.795 15.8199L103.512 15.537ZM103.475 6.09693C106.073 8.69498 106.107 12.9418 103.512 15.537L103.795 15.8199C106.549 13.0656 106.509 8.56556 103.758 5.81409L103.475 6.09693ZM54.5128 6.01493L54.7957 5.73209V5.73209L54.5128 6.01493ZM44.9825 6.05171L44.6997 5.76887V5.76887L44.9825 6.05171ZM44.9458 15.5823L44.6629 15.8651L44.9458 15.5823ZM44.9458 55.0605L44.6629 54.7777L44.9458 55.0605ZM44.9825 64.5911L44.6997 64.8739L44.9825 64.5911ZM54.5128 64.6279L54.7957 64.9107L54.5128 64.6279ZM54.609 5.91873L54.8919 5.63589L54.609 5.91873ZM44.8863 5.95551L45.1692 6.23835L45.1692 6.23835L44.8863 5.95551ZM54.609 64.7241L54.3262 64.4412L54.609 64.7241ZM87.9004 29.5296L88.1832 29.8124L87.9004 29.5296ZM102.7 14.7297L102.983 15.0126L102.7 14.7297ZM87.9004 41.1132L88.1832 40.8304L87.9004 41.1132ZM102.7 55.9131L102.983 55.6302L102.7 55.9131ZM102.663 63.7386L102.946 64.0214H102.946L102.663 63.7386ZM94.8472 63.7754L95.13 63.4925L94.8472 63.7754ZM80.0477 48.9755L80.3306 48.6927H80.3306L80.0477 48.9755ZM68.455 48.9755L68.1722 48.6927L68.455 48.9755ZM57.9034 59.5274L57.5037 59.5407L57.5344 60.4621L58.1863 59.8102L57.9034 59.5274ZM55.5433 54.0933L55.2609 54.3765L55.5433 54.0933ZM51.5777 50.1381L51.2949 49.8553L51.0117 50.1385L51.2953 50.4214L51.5777 50.1381ZM60.6024 41.1132L60.3195 40.8304L60.6024 41.1132ZM60.6024 29.5296L60.3195 29.8124L60.6024 29.5296ZM51.5777 20.5047L51.2952 20.2215L51.0117 20.5043L51.2949 20.7875L51.5777 20.5047ZM55.5433 16.5495L55.8258 16.8327L55.5433 16.5495ZM57.9035 11.1155L58.1863 10.8326L57.5344 10.1807L57.5037 11.1021L57.9035 11.1155ZM68.455 21.6673L68.1722 21.9502V21.9502L68.455 21.6673ZM80.0477 21.6673L80.3306 21.9502H80.3306L80.0477 21.6673ZM94.8472 6.86748L94.5643 6.58464V6.58464L94.8472 6.86748ZM102.663 6.90426L102.946 6.62142L102.663 6.90426ZM53.6556 6.86748L53.9384 6.58464V6.58464L53.6556 6.86748ZM52.0452 5.75624L52.209 5.39133L52.2076 5.39071L52.0452 5.75624ZM54.0213 7.2332L54.3254 6.9734L54.3153 6.96146L54.3041 6.95036L54.0213 7.2332ZM53.7344 14.7461L54.0169 15.0293L53.7344 14.7461ZM49.7716 18.6985L49.4887 18.9813L49.7712 19.2638L50.054 18.9817L49.7716 18.6985ZM45.8029 14.7297L46.0858 14.4469V14.4469L45.8029 14.7297ZM45.8397 6.90426L45.5569 6.62142V6.62142L45.8397 6.90426ZM49.7807 5.27435L49.7815 4.87435L49.7806 4.87435L49.7807 5.27435ZM57.7513 9.25356L57.359 9.33164L57.3827 9.45062L57.4685 9.5364L57.7513 9.25356ZM57.7513 61.3893L57.4685 61.1064L57.3827 61.1922L57.359 61.3112L57.7513 61.3893ZM57.6986 61.6344L57.3089 61.5443L56.9942 62.9045L57.9814 61.9173L57.6986 61.6344ZM57.6986 9.00843L57.9814 8.72559L56.9942 7.73835L57.3089 9.09858L57.6986 9.00843ZM42.9436 9.78846L42.6612 9.50524L42.5684 9.59781L42.5483 9.72736L42.9436 9.78846ZM43.1095 9.62305L43.5029 9.69506L43.7334 8.43586L42.827 9.33984L43.1095 9.62305ZM48.9156 19.5522L49.198 19.8354L49.4816 19.5526L49.1984 19.2694L48.9156 19.5522ZM48.8193 19.6483L48.5364 19.9311L48.8189 20.2136L49.1017 19.9315L48.8193 19.6483ZM21.2664 31.4085L21.5489 31.6917L21.2664 31.4085ZM41.6541 11.0746L42.054 11.0638L42.0291 10.1357L41.3717 10.7914L41.6541 11.0746ZM20.8731 38.793L21.185 38.5425L21.1848 38.5423L20.8731 38.793ZM20.8747 38.795L21.1869 38.545L21.1866 38.5446L20.8747 38.795ZM21.2884 39.2562L21.5709 38.973H21.5709L21.2884 39.2562ZM41.6541 59.5682L41.3717 59.8515L42.0291 60.5071L42.054 59.579L41.6541 59.5682ZM43.9923 54.1118L43.7095 53.829L43.9923 54.1118ZM47.9633 50.1408L48.2461 50.4236L48.5293 50.1404L48.2457 49.8576L47.9633 50.1408ZM38.9317 41.1331L38.6493 41.4163L38.9317 41.1331ZM38.9318 29.5097L38.6493 29.2265L38.9318 29.5097ZM47.9632 20.502L48.2457 20.7853L48.5293 20.5024L48.2461 20.2192L47.9632 20.502ZM43.9923 16.531L44.2752 16.2482L43.9923 16.531ZM53.4021 3.57455L53.58 3.21633V3.21633L53.4021 3.57455ZM44.0453 5.0821L44.3278 5.36531V5.36531L44.0453 5.0821ZM19.4575 29.6051L19.1751 29.3219L19.4575 29.6051ZM18.8768 40.3877L19.1889 40.1376L19.1885 40.1371L18.8768 40.3877ZM19.4795 41.0596L19.197 41.3428L19.197 41.3428L19.4795 41.0596ZM44.0453 65.5607L43.7628 65.8439L44.0453 65.5607ZM49.7662 67.9192L49.7672 67.5192H49.7662L49.7662 67.9192ZM53.4071 67.0657L53.2289 66.7076L53.2276 66.7083L53.4071 67.0657ZM55.5251 65.5426L55.2427 65.2593L55.5251 65.5426ZM55.9007 65.1422L55.6178 64.8593L55.6085 64.8686L55.5999 64.8784L55.9007 65.1422ZM70.2656 50.7768L69.9828 50.4939L70.2656 50.7768ZM78.2371 50.7768L78.52 50.4939L78.2371 50.7768ZM93.0365 65.5766L93.3194 65.2938H93.3194L93.0365 65.5766ZM104.474 65.5398L104.756 65.8227L104.474 65.5398ZM104.51 54.1118L104.228 54.3947L104.51 54.1118ZM89.711 39.312L89.9938 39.0291L89.711 39.312ZM89.711 31.3309L89.4281 31.048L89.711 31.3309ZM104.51 16.531L104.228 16.2482L104.51 16.531ZM104.474 5.10299L104.756 4.82015V4.82015L104.474 5.10299ZM93.0365 5.06621L93.3194 5.34905V5.34905L93.0365 5.06621ZM78.2371 19.8661L78.52 20.1489V20.1489L78.2371 19.8661ZM70.2656 19.8661L69.9828 20.1489V20.1489L70.2656 19.8661ZM55.9009 5.50086L55.6001 5.76456L55.6087 5.77443L55.618 5.7837L55.9009 5.50086ZM55.5251 5.10025L55.2427 5.38346V5.38346L55.5251 5.10025ZM50.6254 49.1883L50.3426 48.9055L50.0593 49.1887L50.3429 49.4715L50.6254 49.1883ZM50.6254 21.4545L50.3429 21.1713L50.0593 21.4541L50.3425 21.7373L50.6254 21.4545ZM50.7217 21.3584L51.0046 21.0756L50.7221 20.7931L50.4392 21.0752L50.7217 21.3584ZM50.7217 49.2844L50.4393 49.5676L50.7221 49.8497L51.0046 49.5672L50.7217 49.2844ZM48.8193 50.9945L49.1017 50.7113L48.8189 50.4292L48.5364 50.7117L48.8193 50.9945ZM42.9436 60.8543L42.5483 60.9154L42.5683 61.045L42.6612 61.1376L42.9436 60.8543ZM43.1095 61.0197L42.827 61.303L43.7333 62.2069L43.5029 60.9477L43.1095 61.0197ZM48.9156 51.0906L49.1984 51.3734L49.4816 51.0902L49.1981 50.8074L48.9156 51.0906ZM49.7716 51.9443L50.0541 51.6611L49.7712 51.379L49.4887 51.6615L49.7716 51.9443ZM45.8029 55.9131L45.5201 55.6302L45.8029 55.9131ZM45.8397 63.7386L46.1226 63.4557L45.8397 63.7386ZM52.0502 64.8843L51.886 64.5196V64.5196L52.0502 64.8843ZM53.6556 63.7754L53.3727 63.4925V63.4925L53.6556 63.7754ZM54.0212 63.4098L54.304 63.6926L54.3151 63.6815L54.3253 63.6696L54.0212 63.4098ZM53.7344 55.8967L53.452 56.1799L53.7344 55.8967ZM49.7694 48.3346L49.4869 48.6178L49.7698 48.8999L50.0522 48.6174L49.7694 48.3346ZM40.7406 39.3296L41.0231 39.0464H41.0231L40.7406 39.3296ZM40.7406 31.3132L40.4582 31.03L40.7406 31.3132ZM49.7694 22.3082L50.0522 22.0254L49.7698 21.7429L49.4869 22.025L49.7694 22.3082ZM58.7918 31.3309L59.0746 31.048L58.7918 31.3309ZM58.7918 39.312L59.0746 39.5948L58.7918 39.312ZM127.801 38.795L127.489 38.5446L127.489 38.545L127.801 38.795ZM127.802 38.7933L127.491 38.5427L127.49 38.5429L127.802 38.7933ZM127.387 39.2562L127.67 39.5394L127.387 39.2562ZM102.821 63.7573L102.539 63.474L102.821 63.7573ZM94.9595 63.7391L94.677 64.0223L94.9595 63.7391ZM94.9413 55.8967L94.6588 55.6135L94.9413 55.8967ZM109.744 41.1331L109.461 40.8498L109.744 41.1331ZM109.744 29.5097L109.461 29.7929L109.744 29.5097ZM100.576 20.3659L100.294 20.0827L100.01 20.3659L100.294 20.6492L100.576 20.3659ZM104.389 16.5635L104.671 16.8467L104.389 16.5635ZM106.772 10.8258L107.055 10.5425L106.372 9.86181L106.372 10.8258L106.772 10.8258ZM127.409 31.4085L127.127 31.6917L127.409 31.4085ZM45.6704 55.804L45.9529 56.0872L45.6704 55.804ZM90.7677 10.8293L91.1677 10.83L91.1694 9.86375L90.4853 10.5461L90.7677 10.8293ZM53.547 63.6592L53.8295 63.9424L53.547 63.6592ZM96.9586 20.3657L97.2411 20.6489L97.5251 20.3657L97.2411 20.0824L96.9586 20.3657ZM93.1324 16.5495L92.8499 16.8327L93.1324 16.5495ZM98.7783 2.72468L98.772 3.12483L98.7847 3.12463L98.7783 2.72468ZM92.8945 5.10048L93.177 5.38371V5.38371L92.8945 5.10048ZM43.8616 54.0001L43.5791 53.7168L43.8616 54.0001ZM43.8576 65.467L43.5752 65.7502L43.8576 65.467ZM55.3559 65.4631L55.0734 65.1799L55.3559 65.4631ZM98.7674 22.1696L99.0498 21.8864L98.7674 21.6047L98.4849 21.8864L98.7674 22.1696ZM107.935 31.3132L108.218 31.03L107.935 31.3132ZM107.935 39.3296L107.653 39.0464V39.0464L107.935 39.3296ZM93.1324 54.0933L93.4149 54.3765L93.1324 54.0933ZM93.1506 65.5426L92.8681 65.8258L93.1506 65.5426ZM104.63 65.5607L104.348 65.2775L104.63 65.5607ZM129.196 41.0596L129.479 41.3428V41.3428L129.196 41.0596ZM129.799 40.3877L129.487 40.1371L129.487 40.1376L129.799 40.3877ZM129.218 29.6051L129.501 29.3219L129.218 29.6051ZM104.63 5.0821L104.348 5.36531V5.36531L104.63 5.0821ZM94.9413 14.7461L94.6588 15.0293L94.9413 14.7461ZM98.7672 18.5619L98.4848 18.8452L98.7672 19.1269L99.0497 18.8452L98.7672 18.5619ZM94.9595 6.9037L95.2419 7.18691L94.9595 6.9037ZM98.767 5.27609L98.7755 4.87618L98.7663 4.87598L98.757 4.87621L98.767 5.27609ZM102.584 6.90055L102.301 7.18377L102.584 6.90055ZM102.58 14.7596L102.297 14.4764L102.58 14.7596ZM54.23 6.29777L69.0294 21.0976L69.5951 20.5319L54.7957 5.73209L54.23 6.29777ZM45.2654 6.33455C47.7345 3.86541 51.7683 3.83606 54.23 6.29777L54.7957 5.73209C52.0161 2.95243 47.4756 2.99285 44.6997 5.76887L45.2654 6.33455ZM45.2286 15.2994C42.767 12.8377 42.7963 8.80369 45.2654 6.33455L44.6997 5.76887C41.9238 8.54489 41.8833 13.0854 44.6629 15.8651L45.2286 15.2994ZM60.0281 30.0993L45.2286 15.2994L44.6629 15.8651L59.4624 30.665L60.0281 30.0993ZM45.2286 55.3434L60.028 40.5435L59.4624 39.9779L44.6629 54.7777L45.2286 55.3434ZM45.2654 64.3083C42.7963 61.8391 42.767 57.8051 45.2286 55.3434L44.6629 54.7777C41.8833 57.5574 41.9238 62.0979 44.6997 64.8739L45.2654 64.3083ZM54.23 64.345C51.7683 66.8067 47.7345 66.7774 45.2654 64.3083L44.6997 64.8739C47.4756 67.65 52.0161 67.6904 54.7957 64.9107L54.23 64.345ZM69.0294 49.5452L54.23 64.345L54.7957 64.9107L69.5951 50.1109L69.0294 49.5452ZM54.3262 6.20157L69.1256 21.0014L69.6913 20.4357L54.8919 5.63589L54.3262 6.20157ZM45.1692 6.23835C47.6905 3.71702 51.8105 3.6858 54.3262 6.20157L54.8919 5.63589C52.0582 2.80214 47.4316 2.84449 44.6035 5.67267L45.1692 6.23835ZM45.1324 15.3956C42.6167 12.8798 42.6479 8.75969 45.1692 6.23835L44.6035 5.67267C41.7754 8.50085 41.733 13.1276 44.5667 15.9613L45.1324 15.3956ZM59.9319 30.1955L45.1324 15.3956L44.5667 15.9613L59.3662 30.7612L59.9319 30.1955ZM45.1324 55.2472L59.9319 40.4473L59.3662 39.8817L44.5667 54.6815L45.1324 55.2472ZM45.1692 64.4045C42.6479 61.8831 42.6167 57.763 45.1324 55.2472L44.5667 54.6815C41.733 57.5153 41.7754 62.142 44.6035 64.9701L45.1692 64.4045ZM54.3262 64.4412C51.8105 66.957 47.6905 66.9258 45.1692 64.4045L44.6035 64.9701C47.4316 67.7983 52.0582 67.8407 54.8919 65.0069L54.3262 64.4412ZM69.1256 49.6414L54.3262 64.4412L54.8919 65.0069L69.6913 50.2071L69.1256 49.6414ZM88.1832 29.8124L102.983 15.0126L102.417 14.4469L87.6175 29.2468L88.1832 29.8124ZM88.1832 40.8304C85.1404 37.7875 85.1404 32.8553 88.1832 29.8124L87.6175 29.2468C84.2623 32.6021 84.2623 38.0408 87.6175 41.3961L88.1832 40.8304ZM102.983 55.6302L88.1832 40.8304L87.6175 41.3961L102.417 56.1959L102.983 55.6302ZM102.946 64.0214C105.259 61.7081 105.283 57.9302 102.983 55.6302L102.417 56.1959C104.399 58.1783 104.386 61.4496 102.38 63.4557L102.946 64.0214ZM94.5643 64.0582C96.8623 66.3562 100.634 66.333 102.946 64.0214L102.38 63.4557C100.376 65.46 97.1104 65.473 95.13 63.4925L94.5643 64.0582ZM79.7649 49.2584L94.5643 64.0582L95.13 63.4925L80.3306 48.6927L79.7649 49.2584ZM68.7379 49.2583C71.7825 46.2136 76.7202 46.2136 79.7649 49.2584L80.3306 48.6927C76.9735 45.3355 71.5292 45.3355 68.1722 48.6927L68.7379 49.2583ZM58.1863 59.8102L68.7379 49.2583L68.1722 48.6927L57.6206 59.2445L58.1863 59.8102ZM58.3032 59.514C58.2341 57.4426 57.4106 55.3907 55.8258 53.8101L55.2609 54.3765C56.6955 55.8074 57.441 57.6636 57.5037 59.5407L58.3032 59.514ZM55.8258 53.8101L51.8602 49.8549L51.2953 50.4214L55.2609 54.3765L55.8258 53.8101ZM60.3195 40.8304L51.2949 49.8553L51.8606 50.421L60.8852 41.3961L60.3195 40.8304ZM60.3195 29.8124C63.3624 32.8553 63.3624 37.7875 60.3195 40.8304L60.8852 41.3961C64.2405 38.0408 64.2405 32.6021 60.8852 29.2468L60.3195 29.8124ZM51.2949 20.7875L60.3195 29.8124L60.8852 29.2468L51.8606 20.2218L51.2949 20.7875ZM51.8602 20.7879L55.8258 16.8327L55.2609 16.2663L51.2952 20.2215L51.8602 20.7879ZM55.8258 16.8327C57.4106 15.2521 58.2341 13.2003 58.3032 11.1288L57.5037 11.1021C57.441 12.9792 56.6955 14.8354 55.2609 16.2663L55.8258 16.8327ZM68.7379 21.3845L58.1863 10.8326L57.6206 11.3983L68.1722 21.9502L68.7379 21.3845ZM79.7649 21.3845C76.7202 24.4292 71.7825 24.4292 68.7379 21.3845L68.1722 21.9502C71.5292 25.3073 76.9735 25.3073 80.3306 21.9502L79.7649 21.3845ZM94.5643 6.58464L79.7649 21.3845L80.3306 21.9502L95.13 7.15031L94.5643 6.58464ZM102.946 6.62142C100.634 4.30985 96.8623 4.28659 94.5643 6.58464L95.13 7.15031C97.1104 5.16985 100.376 5.18278 102.38 7.1871L102.946 6.62142ZM102.983 15.0126C105.283 12.7126 105.259 8.93474 102.946 6.62142L102.38 7.1871C104.386 9.19319 104.399 12.4645 102.417 14.4469L102.983 15.0126ZM53.9384 6.58464C53.4253 6.07144 52.8377 5.67359 52.209 5.39133L51.8814 6.12115C52.4233 6.36446 52.9297 6.70731 53.3727 7.15032L53.9384 6.58464ZM54.3041 6.95036L53.9384 6.58464L53.3727 7.15031L53.7384 7.51603L54.3041 6.95036ZM53.7171 7.49299C55.4451 9.51596 55.3568 12.563 53.452 14.4629L54.0169 15.0293C56.2225 12.8295 56.3203 9.3089 54.3254 6.9734L53.7171 7.49299ZM53.452 14.4629L49.4891 18.4153L50.054 18.9817L54.0169 15.0293L53.452 14.4629ZM45.5201 15.0126L49.4887 18.9813L50.0544 18.4156L46.0858 14.4469L45.5201 15.0126ZM45.5569 6.62142C43.2436 8.93474 43.2202 12.7126 45.5201 15.0126L46.0858 14.4469C44.1035 12.4645 44.1165 9.19318 46.1226 7.18709L45.5569 6.62142ZM49.7806 4.87435C48.2539 4.87466 46.7207 5.45753 45.5569 6.62142L46.1226 7.1871C47.1298 6.17983 48.4566 5.67462 49.7808 5.67435L49.7806 4.87435ZM49.7798 5.67435C50.4977 5.67592 51.2156 5.82525 51.8827 6.12176L52.2076 5.39071C51.437 5.04821 50.6089 4.87616 49.7815 4.87435L49.7798 5.67435ZM57.4685 9.5364L69.0294 21.0976L69.5951 20.5319L58.0342 8.97072L57.4685 9.5364ZM69.0294 49.5452L57.4685 61.1064L58.0342 61.6721L69.5951 50.1109L69.0294 49.5452ZM58.0883 61.7246C58.1081 61.6391 58.1265 61.5533 58.1436 61.4674L57.359 61.3112C57.3435 61.3891 57.3268 61.4668 57.3089 61.5443L58.0883 61.7246ZM69.1256 49.6414L57.4157 61.3516L57.9814 61.9173L69.6913 50.2071L69.1256 49.6414ZM57.4157 9.29127L69.1256 21.0014L69.6913 20.4357L57.9814 8.72559L57.4157 9.29127ZM58.1436 9.17548C58.1265 9.08952 58.1081 9.00378 58.0883 8.91828L57.3089 9.09858C57.3268 9.17605 57.3435 9.25375 57.359 9.33164L58.1436 9.17548ZM43.2261 10.0717L43.3919 9.90627L42.827 9.33984L42.6612 9.50524L43.2261 10.0717ZM45.2286 15.2994C43.7132 13.784 43.1409 11.6733 43.5029 9.69506L42.716 9.55105C42.3095 11.7724 42.9509 14.153 44.6629 15.8651L45.2286 15.2994ZM49.1984 19.2694L45.2286 15.2994L44.6629 15.8651L48.6327 19.8351L49.1984 19.2694ZM48.6331 19.269L48.5368 19.3651L49.1017 19.9315L49.198 19.8354L48.6331 19.269ZM49.1021 19.3655L45.1324 15.3956L44.5667 15.9613L48.5364 19.9311L49.1021 19.3655ZM45.1324 15.3956C43.6296 13.8926 43.0348 11.8174 43.3389 9.84956L42.5483 9.72736C42.2075 11.9325 42.8732 14.2676 44.5667 15.9613L45.1324 15.3956ZM21.5489 31.6917L41.9366 11.3578L41.3717 10.7914L20.984 31.1253L21.5489 31.6917ZM21.1848 38.5423C19.5591 36.5204 19.6818 33.5539 21.5489 31.6917L20.984 31.1253C18.8221 33.2815 18.6843 36.709 20.5613 39.0436L21.1848 38.5423ZM21.1866 38.5446L21.185 38.5425L20.5612 39.0434L20.5628 39.0455L21.1866 38.5446ZM21.5709 38.973C21.433 38.8355 21.3051 38.6926 21.1869 38.545L20.5625 39.045C20.6992 39.2158 20.847 39.3809 21.0059 39.5394L21.5709 38.973ZM41.9366 59.285L21.5709 38.973L21.0059 39.5394L41.3717 59.8515L41.9366 59.285ZM42.054 59.579C42.1046 57.6943 42.841 55.8289 44.2752 54.3947L43.7095 53.829C42.1234 55.4151 41.3101 57.4785 41.2543 59.5575L42.054 59.579ZM44.2752 54.3947L48.2461 50.4236L47.6804 49.8579L43.7095 53.829L44.2752 54.3947ZM38.6493 41.4163L47.6808 50.424L48.2457 49.8576L39.2142 40.8498L38.6493 41.4163ZM38.6493 29.2265C35.2744 32.5925 35.2744 38.0502 38.6493 41.4163L39.2142 40.8498C36.1527 37.7964 36.1527 32.8464 39.2142 29.7929L38.6493 29.2265ZM47.6808 20.2188L38.6493 29.2265L39.2142 29.7929L48.2457 20.7853L47.6808 20.2188ZM48.2461 20.2192L44.2752 16.2482L43.7095 16.8138L47.6804 20.7849L48.2461 20.2192ZM44.2752 16.2482C42.841 14.814 42.1046 12.9485 42.054 11.0638L41.2543 11.0853C41.3101 13.1643 42.1234 15.2277 43.7095 16.8138L44.2752 16.2482ZM53.58 3.21633C50.3978 1.63527 46.4191 2.14963 43.7629 4.79888L44.3278 5.36531C46.7313 2.96814 50.3367 2.49821 53.2241 3.93278L53.58 3.21633ZM43.7629 4.79888L19.1751 29.3219L19.74 29.8883L44.3278 5.36531L43.7629 4.79888ZM19.1751 29.3219C16.0723 32.4165 15.8896 37.31 18.565 40.6383L19.1885 40.1371C16.7639 37.1207 16.9326 32.6883 19.74 29.8883L19.1751 29.3219ZM18.5646 40.6378C18.7602 40.882 18.9711 41.1175 19.197 41.3428L19.762 40.7764C19.5571 40.572 19.366 40.3587 19.1889 40.1376L18.5646 40.6378ZM19.197 41.3428L43.7628 65.8439L44.3278 65.2775L19.762 40.7764L19.197 41.3428ZM43.7628 65.8439C45.4203 67.497 47.5941 68.3191 49.7662 68.3192L49.7662 67.5192C47.7957 67.5191 45.8282 66.774 44.3278 65.2775L43.7628 65.8439ZM53.2276 66.7083C52.1444 67.2525 50.9563 67.522 49.7672 67.5192L49.7652 68.3192C51.0762 68.3223 52.3884 68.0252 53.5867 67.4231L53.2276 66.7083ZM53.5854 67.4238C54.3883 67.0242 55.1404 66.4912 55.8076 65.8258L55.2427 65.2593C54.6374 65.863 53.956 66.3458 53.2289 66.7076L53.5854 67.4238ZM55.8076 65.8258C55.9444 65.6893 56.0757 65.5492 56.2014 65.4059L55.5999 64.8784C55.4859 65.0084 55.3669 65.1355 55.2427 65.2593L55.8076 65.8258ZM69.9828 50.4939L55.6178 64.8593L56.1835 65.425L70.5485 51.0596L69.9828 50.4939ZM78.52 50.4939C76.1621 48.136 72.3406 48.136 69.9828 50.4939L70.5485 51.0596C72.5939 49.0141 75.9088 49.0141 77.9543 51.0596L78.52 50.4939ZM93.3194 65.2938L78.52 50.4939L77.9543 51.0596L92.7537 65.8595L93.3194 65.2938ZM104.191 65.257C101.205 68.243 96.3164 68.2909 93.3194 65.2938L92.7537 65.8595C96.069 69.1748 101.464 69.1153 104.756 65.8227L104.191 65.257ZM104.228 54.3947C107.223 57.3899 107.175 62.2727 104.191 65.257L104.756 65.8227C108.047 62.5318 108.107 57.1424 104.793 53.829L104.228 54.3947ZM89.4281 39.5948L104.228 54.3947L104.793 53.829L89.9938 39.0291L89.4281 39.5948ZM89.4281 31.048C87.0684 33.4078 87.0684 37.2351 89.4281 39.5948L89.9938 39.0291C87.9465 36.9818 87.9465 33.661 89.9938 31.6137L89.4281 31.048ZM104.228 16.2482L89.4281 31.048L89.9938 31.6137L104.793 16.8138L104.228 16.2482ZM104.191 5.38583C107.175 8.37012 107.223 13.2529 104.228 16.2482L104.793 16.8138C108.107 13.5004 108.047 8.11102 104.756 4.82015L104.191 5.38583ZM93.3194 5.34905C96.3164 2.35192 101.205 2.39978 104.191 5.38583L104.756 4.82015C101.464 1.52751 96.069 1.46801 92.7537 4.78337L93.3194 5.34905ZM78.52 20.1489L93.3194 5.34905L92.7537 4.78337L77.9543 19.5832L78.52 20.1489ZM69.9828 20.1489C72.3406 22.5068 76.1621 22.5068 78.52 20.1489L77.9543 19.5832C75.9088 21.6287 72.5939 21.6287 70.5485 19.5832L69.9828 20.1489ZM55.618 5.7837L69.9828 20.1489L70.5485 19.5832L56.1837 5.21802L55.618 5.7837ZM56.2016 5.23716C56.0759 5.09372 55.9445 4.95358 55.8076 4.81703L55.2427 5.38346C55.3669 5.5074 55.4861 5.63452 55.6001 5.76456L56.2016 5.23716ZM55.8076 4.81703C55.139 4.15014 54.385 3.61625 53.58 3.21633L53.2241 3.93278C53.9529 4.2949 54.6361 4.77848 55.2427 5.38346L55.8076 4.81703ZM50.9082 49.4712L59.9319 40.4473L59.3662 39.8817L50.3426 48.9055L50.9082 49.4712ZM59.9319 30.1955L50.9082 21.1716L50.3425 21.7373L59.3662 30.7612L59.9319 30.1955ZM50.9079 21.7377L51.0042 21.6416L50.4392 21.0752L50.3429 21.1713L50.9079 21.7377ZM60.0281 30.0993L51.0046 21.0756L50.4389 21.6413L59.4624 30.665L60.0281 30.0993ZM51.0046 49.5672L60.028 40.5435L59.4624 39.9779L50.4389 49.0015L51.0046 49.5672ZM51.0042 49.0012L50.9079 48.9051L50.3429 49.4715L50.4393 49.5676L51.0042 49.0012ZM45.1324 55.2472L49.1021 51.2773L48.5364 50.7117L44.5667 54.6815L45.1324 55.2472ZM43.3389 60.7932C43.0348 58.8254 43.6296 56.7502 45.1324 55.2472L44.5667 54.6815C42.8732 56.3752 42.2075 58.7103 42.5483 60.9154L43.3389 60.7932ZM43.3919 60.7365L43.2261 60.5711L42.6612 61.1376L42.827 61.303L43.3919 60.7365ZM43.5029 60.9477C43.141 58.9696 43.7132 56.8588 45.2286 55.3434L44.6629 54.7777C42.9509 56.4898 42.3095 58.8704 42.716 61.0917L43.5029 60.9477ZM45.2286 55.3434L49.1984 51.3734L48.6327 50.8077L44.6629 54.7777L45.2286 55.3434ZM48.5368 51.2777L48.6331 51.3738L49.1981 50.8074L49.1017 50.7113L48.5368 51.2777ZM49.4887 51.6615L45.5201 55.6302L46.0858 56.1959L50.0544 52.2272L49.4887 51.6615ZM45.5201 55.6302C43.2202 57.9302 43.2436 61.7081 45.5569 64.0214L46.1226 63.4557C44.1165 61.4496 44.1035 58.1783 46.0858 56.1959L45.5201 55.6302ZM45.5569 64.0214C47.3547 65.8193 50.0326 66.2313 52.2144 65.2491L51.886 64.5196C49.9987 65.3692 47.6787 65.0119 46.1226 63.4557L45.5569 64.0214ZM52.2144 65.2491C52.841 64.967 53.4267 64.5699 53.9384 64.0582L53.3727 63.4925C52.931 63.9343 52.4262 64.2764 51.886 64.5196L52.2144 65.2491ZM53.9384 64.0582L54.304 63.6926L53.7383 63.1269L53.3727 63.4925L53.9384 64.0582ZM53.452 56.1799C55.3568 58.0798 55.4451 61.127 53.717 63.15L54.3253 63.6696C56.3204 61.3341 56.2225 57.8133 54.0169 55.6135L53.452 56.1799ZM49.4891 52.2275L53.452 56.1799L54.0169 55.6135L50.0541 51.6611L49.4891 52.2275ZM50.0519 48.0514L41.0231 39.0464L40.4582 39.6128L49.4869 48.6178L50.0519 48.0514ZM41.0231 39.0464C38.9603 36.989 38.9603 33.6538 41.0231 31.5964L40.4582 31.03C38.082 33.3999 38.082 37.2429 40.4582 39.6128L41.0231 39.0464ZM41.0231 31.5964L50.0519 22.5914L49.4869 22.025L40.4582 31.03L41.0231 31.5964ZM59.0746 31.048L50.0522 22.0254L49.4865 22.5911L58.5089 31.6137L59.0746 31.048ZM59.0746 39.5948C61.4343 37.2351 61.4343 33.4078 59.0746 31.048L58.5089 31.6137C60.5562 33.661 60.5562 36.9818 58.5089 39.0291L59.0746 39.5948ZM50.0522 48.6174L59.0746 39.5948L58.5089 39.0291L49.4866 48.0517L50.0522 48.6174ZM128.113 39.0454L128.114 39.0438L127.49 38.5429L127.489 38.5446L128.113 39.0454ZM127.67 39.5394C127.829 39.3809 127.977 39.2158 128.113 39.045L127.489 38.545C127.371 38.6926 127.243 38.8355 127.105 38.973L127.67 39.5394ZM103.104 64.0405L127.67 39.5394L127.105 38.973L102.539 63.474L103.104 64.0405ZM94.677 64.0223C97.0025 66.3417 100.785 66.3532 103.104 64.0405L102.539 63.474C100.535 65.4728 97.2578 65.4664 95.2419 63.4559L94.677 64.0223ZM94.6588 55.6135C92.3391 57.9271 92.3507 61.7022 94.677 64.0223L95.2419 63.4559C93.2265 61.4458 93.2201 58.1784 95.2238 56.1799L94.6588 55.6135ZM109.461 40.8498L94.6588 55.6135L95.2238 56.1799L110.026 41.4163L109.461 40.8498ZM109.461 29.7929C112.523 32.8464 112.523 37.7964 109.461 40.8498L110.026 41.4163C113.401 38.0502 113.401 32.5925 110.026 29.2265L109.461 29.7929ZM100.294 20.6492L109.461 29.7929L110.026 29.2265L100.858 20.0827L100.294 20.6492ZM100.858 20.6492L104.671 16.8467L104.106 16.2803L100.294 20.0827L100.858 20.6492ZM104.671 16.8467C106.338 15.1843 107.172 13.0043 107.172 10.8257L106.372 10.8258C106.372 12.8001 105.617 14.7737 104.106 16.2803L104.671 16.8467ZM127.692 31.1253L107.055 10.5425L106.49 11.109L127.127 31.6917L127.692 31.1253ZM128.114 39.044C129.991 36.7094 129.854 33.2815 127.692 31.1253L127.127 31.6917C128.994 33.5539 129.116 36.5207 127.491 38.5427L128.114 39.044ZM45.9529 56.0872L91.0502 11.1125L90.4853 10.5461L45.388 55.5207L45.9529 56.0872ZM45.949 63.3798C43.9315 61.3678 43.9315 58.103 45.9529 56.0872L45.388 55.5207C43.0536 57.8488 43.0528 61.6212 45.3841 63.9463L45.949 63.3798ZM53.2646 63.3759C51.2426 65.3924 47.9671 65.3924 45.949 63.3798L45.3841 63.9463C47.7148 66.2707 51.4957 66.2698 53.8295 63.9424L53.2646 63.3759ZM96.6761 20.0824L53.2646 63.3759L53.8295 63.9424L97.2411 20.6489L96.6761 20.0824ZM97.2411 20.0824L93.4148 16.2663L92.8499 16.8327L96.6761 20.6489L97.2411 20.0824ZM93.4148 16.2663C91.911 14.7664 91.1642 12.7989 91.1677 10.83L90.3677 10.8286C90.3639 13.0009 91.1885 15.1757 92.8499 16.8327L93.4148 16.2663ZM98.7847 2.32473C96.5559 2.28914 94.3138 3.12016 92.612 4.81726L93.177 5.38371C94.7192 3.84567 96.7501 3.09235 98.772 3.12463L98.7847 2.32473ZM92.612 4.81726L43.5791 53.7168L44.144 54.2833L93.177 5.38371L92.612 4.81726ZM43.5791 53.7168C40.247 57.0399 40.2435 62.4276 43.5752 65.7502L44.1401 65.1838C41.1223 62.1742 41.125 57.2942 44.144 54.2833L43.5791 53.7168ZM43.5752 65.7502C46.9062 69.0722 52.3068 69.0687 55.6383 65.7463L55.0734 65.1799C52.0537 68.1913 47.1585 68.1939 44.1401 65.1838L43.5752 65.7502ZM55.6383 65.7463L99.0498 22.4529L98.4849 21.8864L55.0734 65.1799L55.6383 65.7463ZM108.218 31.03L99.0498 21.8864L98.4849 22.4529L107.653 31.5964L108.218 31.03ZM108.218 39.6128C110.594 37.2429 110.594 33.3999 108.218 31.03L107.653 31.5964C109.715 33.6538 109.715 36.989 107.653 39.0464L108.218 39.6128ZM93.4149 54.3765L108.218 39.6128L107.653 39.0464L92.8499 53.8101L93.4149 54.3765ZM93.433 65.2593C90.4275 62.2617 90.4039 57.3795 93.4149 54.3765L92.8499 53.8101C89.5227 57.1286 89.552 62.5184 92.8681 65.8258L93.433 65.2593ZM104.348 65.2775C101.336 68.2812 96.4392 68.2576 93.433 65.2593L92.8681 65.8258C96.1837 69.1326 101.586 69.1619 104.913 65.8439L104.348 65.2775ZM128.914 40.7764L104.348 65.2775L104.913 65.8439L129.479 41.3428L128.914 40.7764ZM129.487 40.1376C129.31 40.3587 129.119 40.572 128.914 40.7764L129.479 41.3428C129.705 41.1175 129.916 40.882 130.111 40.6378L129.487 40.1376ZM128.936 29.8883C131.743 32.6883 131.912 37.1207 129.487 40.1371L130.111 40.6383C132.786 37.31 132.603 32.4165 129.501 29.3219L128.936 29.8883ZM104.348 5.36531L128.936 29.8883L129.501 29.3219L104.913 4.79888L104.348 5.36531ZM98.7847 3.12463C100.797 3.09252 102.816 3.83726 104.348 5.36531L104.913 4.79888C103.22 3.11085 100.99 2.28934 98.772 2.32473L98.7847 3.12463ZM94.6588 15.0293L98.4848 18.8452L99.0497 18.2787L95.2237 14.4629L94.6588 15.0293ZM94.677 6.62048C92.3507 8.94064 92.3391 12.7157 94.6588 15.0293L95.2237 14.4629C93.2201 12.4644 93.2265 9.19704 95.2419 7.18691L94.677 6.62048ZM98.757 4.87621C97.2776 4.91309 95.8057 5.49472 94.677 6.62048L95.2419 7.18691C96.2194 6.21208 97.4934 5.70796 98.7769 5.67597L98.757 4.87621ZM98.7584 5.676C100.045 5.70347 101.321 6.20618 102.301 7.18377L102.866 6.61732C101.734 5.48832 100.259 4.90786 98.7755 4.87618L98.7584 5.676ZM102.301 7.18377C104.319 9.19578 104.319 12.4605 102.297 14.4764L102.862 15.0428C105.197 12.7148 105.198 8.94232 102.866 6.61732L102.301 7.18377ZM102.297 14.4764L98.4848 18.2787L99.0497 18.8452L102.862 15.0428L102.297 14.4764Z" fill="white" mask="url(#path-2-outside-1_538_4693)"/>
</svg>
